<?xml version="1.0" encoding="UTF-8" standalone="no"?>
<!-- Generator: Adobe Illustrator 23.0.6, SVG Export Plug-In . SVG Version: 6.00 Build 0)  -->

<svg
   xmlns:dc="http://purl.org/dc/elements/1.1/"
   xmlns:cc="http://creativecommons.org/ns#"
   xmlns:rdf="http://www.w3.org/1999/02/22-rdf-syntax-ns#"
   xmlns:svg="http://www.w3.org/2000/svg"
   xmlns="http://www.w3.org/2000/svg"
   xmlns:sodipodi="http://sodipodi.sourceforge.net/DTD/sodipodi-0.dtd"
   xmlns:inkscape="http://www.inkscape.org/namespaces/inkscape"
   version="1.1"
   id="Layer_1"
   x="0px"
   y="0px"
   viewBox="0 0 999.99998 1000"
   xml:space="preserve"
   sodipodi:docname="general2019#3_small.svg"
   width="1000"
   height="1000"
   inkscape:version="0.92.4 (5da689c313, 2019-01-14)"><metadata
   id="metadata31"><rdf:RDF><cc:Work
       rdf:about=""><dc:format>image/svg+xml</dc:format><dc:type
         rdf:resource="http://purl.org/dc/dcmitype/StillImage" /><dc:title></dc:title></cc:Work></rdf:RDF></metadata><defs
   id="defs29" /><sodipodi:namedview
   pagecolor="#ffffff"
   bordercolor="#666666"
   borderopacity="1"
   objecttolerance="10"
   gridtolerance="10"
   guidetolerance="10"
   inkscape:pageopacity="0"
   inkscape:pageshadow="2"
   inkscape:window-width="2560"
   inkscape:window-height="1377"
   id="namedview27"
   showgrid="false"
   fit-margin-top="0"
   fit-margin-left="0"
   fit-margin-right="0"
   fit-margin-bottom="0"
   inkscape:zoom="0.13840831"
   inkscape:cx="414.97502"
   inkscape:cy="467.95001"
   inkscape:window-x="-8"
   inkscape:window-y="-8"
   inkscape:window-maximized="1"
   inkscape:current-layer="Layer_1" />
<style
   type="text/css"
   id="style2">
	.st0{fill:#0859A8;}
</style>
<g
   id="g24"
   transform="translate(-914,-320.50002)">
	<path
   class="st0"
   d="m 1793.6,691.1 c 0,-46.6 -37.3,-84.4 -83.3,-84.4 -13.7,0 -26.6,3.4 -38,9.3 l -79.6,-139.6 c 22.9,-15 38.1,-41.2 38.1,-70.9 0,-46.6 -37.3,-84.4 -83.3,-84.4 -29.5,0 -55.4,15.6 -70.2,39 H 1195.7 L 1007.1,691 1195.7,1021.9 H 1574 l 140.6,-246.7 c 44,-2.1 79,-39 79,-84.1 z m -128.4,-70.9 c -10.1,6.6 -18.6,15.3 -25.1,25.5 h -184.9 c -6.5,-10.2 -15.1,-19 -25.2,-25.5 l 79.5,-139.6 c 11.4,5.9 24.3,9.3 38,9.3 13.7,0 26.6,-3.4 38,-9.3 z m -280.1,155.4 c 13.7,0 26.5,-3.4 37.9,-9.3 l 94,165 h -264.1 l 94.4,-164.9 c 11.3,5.8 24.2,9.2 37.8,9.2 z m 27.2,-84.4 c 0,15.6 -12.2,28.3 -27.2,28.3 -15,0 -27.2,-12.7 -27.2,-28.3 0,-15.6 12.2,-28.3 27.2,-28.3 15,0 27.2,12.7 27.2,28.3 z m 135.3,-314 c 15,0 27.2,12.7 27.2,28.3 0,15.6 -12.2,28.3 -27.2,28.3 -15,0 -27.2,-12.7 -27.2,-28.3 0,-15.6 12.2,-28.3 27.2,-28.3 z m -45.1,99.2 -79.6,139.6 c -11.4,-5.9 -24.2,-9.2 -37.8,-9.2 -13.7,0 -26.5,3.4 -37.9,9.3 l -94.3,-165.2 h 224.6 c 6.4,10.2 14.9,18.9 25,25.5 z m -390.8,214.7 134.3,-235.6 94.1,164.8 c -23,15 -38.2,41.2 -38.2,71 0,29.8 15.3,56 38.4,71 L 1246,926.8 Z m 412.2,235.6 -93.7,-164.5 c 10.1,-6.6 18.7,-15.4 25.2,-25.7 h 176.9 z m 186.4,-207.3 c -15,0 -27.2,-12.7 -27.2,-28.3 0,-15.6 12.2,-28.3 27.2,-28.3 15,0 27.2,12.7 27.2,28.3 0,15.6 -12.2,28.3 -27.2,28.3 z"
   id="path4"
   inkscape:connector-curvature="0"
   style="fill:#0859a8" />
	<path
   class="st0"
   d="M 1400.4,781.2"
   id="path6"
   inkscape:connector-curvature="0"
   style="fill:#0859a8" />
	<path
   class="st0"
   d="M 1710.9,673.7"
   id="path8"
   inkscape:connector-curvature="0"
   style="fill:#0859a8" />
	<g
   id="g22">
		<path
   class="st0"
   d="m 1112,1304.6 -2.5,12.1 h -101.9 l 56.4,-64.6 c 22.3,-25.2 34.6,-41.1 34.6,-60.1 0,-22.8 -17.1,-39.1 -38.8,-39.1 -21.7,0 -38.6,16.6 -38.6,38.3 0,7.4 2,13.9 4.9,20.5 l -12.6,2.5 c -3.5,-7.2 -5.2,-14.8 -5.2,-23 0,-28.4 22.3,-50.5 51.5,-50.5 28.9,0 51.7,21.5 51.7,51.2 0,20.5 -11.4,37.6 -37.4,67 l -40.1,45.5 h 78 z"
   id="path10"
   inkscape:connector-curvature="0"
   style="fill:#0859a8" />
		<path
   class="st0"
   d="m 1136.3,1230.2 c 0,-48.2 22.5,-88.8 63.1,-88.8 40.6,0 63.1,40.6 63.1,88.8 0,48.2 -22.5,88.8 -63.1,88.8 -40.6,0 -63.1,-40.6 -63.1,-88.8 z m 113,0 c 0,-41.1 -16.6,-76.9 -50,-76.9 -33.4,0 -50,35.9 -50,76.9 0,41 16.6,76.9 50,76.9 33.5,0 50,-35.9 50,-76.9 z"
   id="path12"
   inkscape:connector-curvature="0"
   style="fill:#0859a8" />
		<path
   class="st0"
   d="m 1333.4,1139.4 v 177.4 h -12.6 v -154.4 l -37.8,26.2 -2.7,-12.9 z"
   id="path14"
   inkscape:connector-curvature="0"
   style="fill:#0859a8" />
		<path
   class="st0"
   d="m 1479.3,1199.5 c 0,49.7 -44.3,98 -83.1,121 l -7.9,-9.4 c 23.3,-14.8 54.4,-40.1 69.3,-73.5 -9.2,9.4 -21.8,15.1 -36.9,15.1 -30.7,0 -54.9,-24.2 -54.9,-55.4 0,-31.2 25,-55.9 56.9,-55.9 32.2,0 56.6,25.2 56.6,58.1 z m -13.1,-2.2 c 0,-24.5 -19,-44 -43.8,-44 -24.5,0 -43.5,19.5 -43.5,44 0,24.5 19,43.8 43.5,43.8 24.8,0 43.8,-19.3 43.8,-43.8 z"
   id="path16"
   inkscape:connector-curvature="0"
   style="fill:#0859a8" />
		<path
   class="st0"
   d="m 1677.2,1200.7 -9.4,53.4 h 29.4 v 11.1 H 1666 l -9.2,51.5 h -12.4 l 9.2,-51.5 h -50.5 l -9.2,51.5 h -12.4 l 9.2,-51.5 h -29.2 v -11.1 h 30.9 l 9.4,-53.4 h -28.9 v -11.1 h 30.9 l 8.2,-46 h 12.4 l -8.2,46 h 50.5 l 8.2,-46 h 12.4 l -8.2,46 h 29.4 v 11.1 z m -12.3,0 h -50.5 l -9.4,53.4 h 50.5 z"
   id="path18"
   inkscape:connector-curvature="0"
   style="fill:#0859a8" />
		<path
   class="st0"
   d="m 1820.9,1263.6 c 0,30.9 -25.2,55.4 -57.1,55.4 -20,0 -36.6,-9.4 -47.5,-24.2 l 6.9,-10.9 c 8.4,13.4 22.8,23.3 40.6,23.3 24.7,0 44.3,-19.3 44.3,-43.8 0,-24 -19,-43 -45,-43 -6.7,0 -13.4,1.2 -20.8,3.2 l 52.9,-68 h -73 l 2.5,-11.9 h 95.5 l -53.2,66.8 h 1.5 c 28.9,-0.1 52.4,23.1 52.4,53.1 z"
   id="path20"
   inkscape:connector-curvature="0"
   style="fill:#0859a8" />
	</g>
</g>
</svg>