<?xml version="1.0" encoding="utf-8"?>
<!-- Generator: Adobe Illustrator 20.0.0, SVG Export Plug-In . SVG Version: 6.00 Build 0)  -->
<svg version="1.1" id="Layer_1" xmlns="http://www.w3.org/2000/svg" xmlns:xlink="http://www.w3.org/1999/xlink" x="0px" y="0px"
	 viewBox="0 0 500 474" style="enable-background:new 0 0 500 474;" xml:space="preserve">
<style type="text/css">
	.st0{fill:#FFFFFF;}
	.st1{fill:#152960;}
</style>
<rect x="17.8" y="20.6" class="st0" width="462" height="433.5"/>
<path class="st1" d="M86.7,372.8v16.4H96v2.9H82.9v-19.3H86.7z"/>
<path class="st1" d="M103.1,372.8V392h-3.7v-19.3H103.1z"/>
<path class="st1" d="M111.4,372.8l11.4,13.4v-13.4h3.6V392h-3.2l-11.5-13.7V392h-3.6v-19.3H111.4z"/>
<path class="st1" d="M135,372.8V384c0,0.9,0.1,1.9,0.5,2.7c0.4,0.7,1,1.3,1.7,1.7c0.8,0.5,1.8,0.7,2.7,0.7c1,0,2-0.2,2.9-0.6
	c0.7-0.4,1.4-1,1.7-1.7c0.4-0.9,0.6-2,0.6-3v-11h3.7v11.4c0.1,2.2-0.7,4.4-2.3,6c-1.9,1.5-4.2,2.2-6.6,2.1c-1.6,0-3.2-0.3-4.6-1
	c-1.3-0.6-2.3-1.5-3-2.8c-0.7-1.3-1.1-2.8-1-4.2v-11.6H135z"/>
<path class="st1" d="M157,372.8l5.3,6.5l5.2-6.5h4.6l-7.5,9.3l8.2,10h-4.7l-5.8-7.2l-5.8,7.2h-4.7l8.2-10l-7.6-9.3H157z"/>
<path class="st1" d="M192.5,372.8L201,392h-3.9l-2-4.7h-8.6l-1.9,4.7h-3.9l7.9-19.3H192.5z M187.7,384.5h6.2l-3.3-7.6L187.7,384.5z"
	/>
<path class="st1" d="M212,372.8c1.9,0,3.7,0.4,5.3,1.2c1.5,0.8,2.8,2,3.6,3.4c0.9,1.5,1.3,3.2,1.3,5c0,1.8-0.4,3.5-1.3,5
	c-0.9,1.5-2.2,2.6-3.7,3.4c-1.7,0.8-3.6,1.2-5.5,1.2H204v-19.3H212z M211.7,389.1c1.8,0.1,3.6-0.6,5-1.9c2.5-2.8,2.5-7,0-9.8
	c-1.4-1.3-3.2-1.9-5.1-1.8h-3.8v13.4L211.7,389.1z"/>
<path class="st1" d="M229.9,372.8l6.3,7.6l6.3-7.6h3.3V392h-3.7v-13.5H242l-5.6,6.8h-0.5l-5.6-6.8h-0.1V392h-3.7v-19.3H229.9z"/>
<path class="st1" d="M254.6,372.8V392h-3.7v-19.3H254.6z"/>
<path class="st1" d="M262.9,372.8l11.4,13.4v-13.4h3.6V392h-3.2l-11.5-13.7V392h-3.6v-19.3H262.9z"/>
<path class="st1" d="M286.7,372.8V392H283v-19.3H286.7z"/>
<path class="st1" d="M297.3,372.5c1.9,0,3.8,0.5,5.4,1.4v3.3c-1.6-1.1-3.4-1.7-5.3-1.8c-0.8,0-1.5,0.1-2.2,0.5
	c-0.5,0.3-0.8,0.9-0.8,1.5c0,0.7,0.5,1.4,1.5,2c0.3,0.2,1.3,0.7,3.2,1.5c1.3,0.5,2.5,1.4,3.4,2.5c0.7,0.9,1.1,2.1,1,3.3
	c0.1,1.5-0.6,3-1.8,4c-1.3,1.1-2.9,1.6-4.6,1.5c-1.1,0-2.1-0.1-3.2-0.4c-1-0.3-2-0.8-3-1.4v-3.7c1.6,1.5,3.6,2.4,5.8,2.6
	c0.8,0,1.5-0.2,2.2-0.6c0.5-0.3,0.9-0.9,0.8-1.6c0-0.9-0.6-1.8-1.5-2.2c-0.8-0.4-1.9-1-3.1-1.6c-1.3-0.5-2.5-1.4-3.4-2.4
	c-0.7-0.9-1.1-2-1.1-3.2c-0.1-1.5,0.6-2.9,1.8-3.9C293.9,373,295.6,372.5,297.3,372.5z"/>
<path class="st1" d="M323,372.8v2.9h-6.8V392h-3.7v-16.4h-6.8v-2.9L323,372.8z"/>
<path class="st1" d="M333.4,372.8c1.6-0.1,3.2,0.5,4.4,1.5c1.1,1,1.8,2.4,1.7,3.9c0,1-0.3,2-0.8,2.9c-0.6,0.9-1.5,1.5-2.5,1.9
	c0.6,0.3,1.2,0.8,1.6,1.4c0.7,0.9,1.3,1.9,1.8,2.9c1.2,2.3,2.1,3.9,2.6,4.8h-4.1c-0.3-0.4-0.7-1.1-1.2-2c-0.7-1.4-1.5-2.8-2.3-4.1
	c-0.4-0.6-0.9-1.1-1.4-1.5c-0.5-0.3-1-0.5-1.6-0.4h-1.4v8.1h-3.7v-19.3H333.4z M332.6,381c0.8,0,1.6-0.2,2.3-0.7
	c0.6-0.5,0.9-1.2,0.8-2c0.1-0.8-0.3-1.5-0.8-2c-0.7-0.5-1.5-0.7-2.4-0.7h-2.3v5.4H332.6z"/>
<path class="st1" d="M355.1,372.8l8.5,19.3h-3.9l-2-4.7h-8.6l-1.9,4.7h-3.9l7.9-19.3H355.1z M350.3,384.5h6.2l-3.3-7.6L350.3,384.5z
	"/>
<path class="st1" d="M380.3,372.8v2.9h-6.8V392h-3.7v-16.4h-6.8v-2.9L380.3,372.8z"/>
<path class="st1" d="M392.6,372.5c1.9,0,3.7,0.4,5.4,1.2c1.6,0.8,2.9,2,3.8,3.6c2.8,4.6,1.4,10.6-3.2,13.4c-0.2,0.1-0.4,0.2-0.6,0.3
	c-3.4,1.7-7.5,1.7-10.9,0c-3.2-1.6-5.2-5-5.2-8.6c0-1.8,0.5-3.5,1.4-5c0.9-1.5,2.2-2.8,3.8-3.6C388.8,372.9,390.7,372.5,392.6,372.5
	z M385.8,382.4c0,1.2,0.3,2.4,0.9,3.4c0.6,1,1.4,1.8,2.4,2.4c1.1,0.6,2.3,0.9,3.5,0.8c1.8,0.1,3.6-0.6,4.9-1.9c1.3-1.3,2-3,1.9-4.8
	c0-1.2-0.3-2.4-0.9-3.5c-0.6-1-1.4-1.8-2.4-2.4c-2.2-1.1-4.8-1.1-7,0c-1,0.5-1.9,1.4-2.4,2.4C386.1,380,385.8,381.2,385.8,382.4z"/>
<path class="st1" d="M414.3,372.8c1.6-0.1,3.2,0.5,4.4,1.5c1.1,1,1.8,2.4,1.7,3.9c0,1-0.3,2-0.8,2.9c-0.6,0.9-1.5,1.5-2.5,1.9
	c0.6,0.3,1.2,0.8,1.6,1.4c0.7,0.9,1.3,1.9,1.8,2.9c1.2,2.3,2.1,3.9,2.6,4.8H419c-0.3-0.4-0.7-1.1-1.2-2c-0.7-1.4-1.5-2.8-2.3-4.1
	c-0.4-0.6-0.9-1.1-1.4-1.5c-0.5-0.3-1-0.5-1.6-0.4h-1.4v8.1h-3.7v-19.3H414.3z M413.5,381c0.8,0,1.6-0.2,2.3-0.7
	c0.6-0.5,0.9-1.2,0.8-2c0.1-0.8-0.3-1.5-0.8-2c-0.7-0.5-1.5-0.7-2.4-0.7h-2.3v5.4H413.5z"/>
<path class="st1" d="M98.8,260.6v70.6h40.3v12.6H82.8v-83.1L98.8,260.6z"/>
<path class="st1" d="M185.3,260.6c7.8,0,14.1,2.3,19,6.8c4.9,4.5,7.3,10.3,7.3,17.4c0,7.2-2.5,13-7.4,17.4
	c-4.9,4.4-11.4,6.7-19.5,6.7h-15.5v34.9h-16.1v-83.1L185.3,260.6z M181.3,296.3c4.3,0,7.6-1,10-2.9c2.4-2,3.6-4.9,3.6-8.7
	c0-7.7-4.9-11.5-14.8-11.5h-10.9v23.1L181.3,296.3z"/>
<path class="st1" d="M244.2,260.6v83.1h-16.1v-83.1H244.2z"/>
<path class="st1" d="M309.5,259.5c4.7,0,9.3,0.5,13.9,1.6c5.1,1.3,10,3.1,14.6,5.5v15.1c-4.5-2.7-9.2-4.8-14.2-6.4
	c-4.4-1.3-9-2-13.6-2c-5.6-0.1-11,1.2-16,3.7c-4.6,2.3-8.5,5.9-11.1,10.3c-5.3,9.2-5.3,20.5,0,29.8c2.6,4.4,6.5,8,11.1,10.2
	c5,2.5,10.5,3.7,16.1,3.6c4.4,0,8.8-0.6,13.1-2c5.4-1.9,10.7-4.3,15.7-7.1V337c-4.7,2.5-9.7,4.6-14.9,6c-5.2,1.3-10.5,1.9-15.8,1.8
	c-8.1,0.1-16.2-1.7-23.5-5.2c-6.8-3.4-12.4-8.6-16.3-15.1c-3.9-6.5-6-14-5.9-21.6c-0.1-7.9,2-15.8,6.1-22.6c4-6.6,9.8-12,16.8-15.4
	C292.9,261.2,301.1,259.3,309.5,259.5z"/>
<path class="st1" d="M356.8,323.4v-13.6h30.6v13.6H356.8z"/>
<path class="st1" d="M419.8,344.7h-14.5V293c0-6.9,0-13.8,0.4-17.8c-0.9,1-4.1,3.4-5.5,4.6c-1.4,1.2,1.2-1.1-6.6,5.3l-7.3-9.2
	l19.3-14.8h14.2L419.8,344.7z"/>
<path class="st1" d="M487.2,462H12.8V12h474.3V462z M22,452.9H478V21.1H22V452.9z"/>
<path class="st1" d="M166.6,97.9c0,4.1-3.4,7.5-7.5,7.5s-7.5-3.4-7.5-7.5c0-4.1,3.3-7.5,7.5-7.5C163.3,90.4,166.6,93.8,166.6,97.9"
	/>
<polygon class="st1" points="147.1,82.9 132,82.9 114,150.6 165.2,150.6 169.2,135.6 133.2,135.6 "/>
<path class="st1" d="M139.5,60.3c-33.3,0-60.3,27-60.3,60.3s27,60.3,60.3,60.3c33.3,0,60.3-27,60.3-60.3c0,0,0,0,0,0
	C199.8,87.3,172.8,60.3,139.5,60.3z M139.5,165.7c-24.9,0-45.1-20.2-45.1-45.1s20.2-45.1,45.1-45.1c24.9,0,45.1,20.2,45.1,45.1
	C184.7,145.5,164.5,165.7,139.5,165.7z"/>
<path class="st1" d="M234.5,108.4c2-0.1,3.9,0.6,5.4,1.9c1.4,1.3,2.1,3.1,2.1,4.9c0.1,1.9-0.7,3.7-2.1,4.9c-1.5,1.3-3.5,2-5.5,1.9
	h-4.4v9.9h-4.6v-23.6H234.5z M233.3,118.6c1,0.1,2-0.2,2.8-0.8c0.7-0.6,1.1-1.5,1-2.5c0-2.2-1.4-3.3-4.2-3.3h-3.1v6.6L233.3,118.6z"
	/>
<path class="st1" d="M255.7,115.9c0.6,0,1.1,0.1,1.6,0.4c0.7,0.3,1.3,0.8,1.9,1.2l-1.5,3.6c-0.8-0.7-1.8-1.2-2.9-1.3
	c-0.7,0-1.4,0.3-1.9,0.7c-0.6,0.5-1.2,1.2-1.5,1.9c-0.4,0.7-0.6,1.5-0.6,2.4v7.2h-4.1v-15.8h4.1v4h0.1c0.5-1.2,1.3-2.3,2.3-3.3
	C253.9,116.3,254.8,116,255.7,115.9z"/>
<path class="st1" d="M270,115.9c1.6,0,3.1,0.3,4.5,1c1.3,0.6,2.4,1.6,3.1,2.9c0.7,1.3,1.1,2.7,1.1,4.2c0,1.5-0.3,3-1.1,4.3
	c-0.7,1.2-1.8,2.3-3.1,2.9c-1.4,0.7-2.9,1.1-4.5,1.1c-1.6,0-3.1-0.3-4.5-1.1c-1.3-0.6-2.4-1.7-3.1-2.9c-0.7-1.3-1.1-2.8-1.1-4.3
	c0-1.5,0.4-2.9,1.1-4.2c0.7-1.2,1.8-2.2,3.1-2.9C267,116.3,268.5,115.9,270,115.9z M265.7,124.1c-0.1,1.4,0.3,2.7,1.2,3.8
	c0.8,0.9,1.9,1.5,3.1,1.4c1.2,0.1,2.4-0.4,3.2-1.3c0.8-1.1,1.3-2.5,1.2-3.9c0.1-1.3-0.3-2.7-1.2-3.7c-0.8-0.9-2-1.4-3.2-1.3
	c-1.2,0-2.3,0.5-3.1,1.4C266.1,121.4,265.7,122.7,265.7,124.1z"/>
<path class="st1" d="M290.4,108.1c0.5,0,1,0,1.5,0.1c0.4,0.1,0.8,0.2,1.2,0.4v3.4c-0.6-0.2-1.2-0.2-1.9-0.2
	c-0.8-0.1-1.6,0.2-2.2,0.8c-0.6,0.7-0.8,1.7-0.7,2.6v1.1h2.7v3.1h-2.7V132h-4.1v-12.6h-2.2v-3.1h2.2v-1.2c-0.1-1.8,0.5-3.7,1.7-5.1
	C287,108.7,288.7,108.1,290.4,108.1z"/>
<path class="st1" d="M302,115.9c2.1-0.1,4.1,0.7,5.5,2.2c1.4,1.7,2.2,3.9,2,6.2v0.6h-11.1c0.1,1.2,0.7,2.4,1.6,3.2
	c1,0.8,2.3,1.2,3.6,1.1c1,0,1.9-0.2,2.9-0.5c1-0.4,2-0.9,2.8-1.6v3.1c-2,1.3-4.3,2-6.7,2c-2.2,0.1-4.4-0.7-6.1-2.2
	c-1.6-1.6-2.5-3.7-2.4-6c-0.1-2.2,0.7-4.3,2.2-5.9C297.7,116.7,299.8,115.9,302,115.9z M305.6,122.4c0-1-0.4-1.9-1-2.7
	c-0.6-0.7-1.5-1-2.4-1c-0.9,0-1.8,0.3-2.5,0.9c-0.7,0.8-1.1,1.7-1.2,2.7H305.6z"/>
<path class="st1" d="M319.6,115.9c0.8,0,1.6,0.1,2.4,0.3c0.8,0.2,1.7,0.5,2.4,0.9v3.3c-0.8-0.5-1.6-0.9-2.5-1.2
	c-0.8-0.3-1.6-0.4-2.4-0.5c-0.5,0-1,0.1-1.4,0.3c-0.3,0.2-0.5,0.6-0.5,1c0,0.3,0.2,0.5,0.4,0.7c0.7,0.5,1.5,0.9,2.3,1.3
	c1.4,0.6,2.7,1.5,3.8,2.5c0.7,0.7,1.1,1.7,1.1,2.8c0.1,1.4-0.5,2.7-1.6,3.6c-1.2,0.9-2.7,1.4-4.3,1.3c-1.1,0-2.1-0.1-3.1-0.4
	c-0.8-0.2-1.7-0.5-2.4-0.9v-3.5c1.5,1,3.3,1.6,5.1,1.7c0.6,0,1.2-0.1,1.7-0.4c0.4-0.2,0.6-0.6,0.7-1c0-0.2-0.1-0.5-0.2-0.7
	c-0.2-0.2-0.4-0.5-0.7-0.6c-0.3-0.2-1.3-0.7-3-1.5c-1.1-0.5-2-1.1-2.8-2c-0.6-0.7-0.9-1.6-0.9-2.5c0-1.3,0.6-2.6,1.6-3.3
	C316.5,116.3,318,115.9,319.6,115.9z"/>
<path class="st1" d="M335.2,115.9c0.8,0,1.6,0.1,2.4,0.3c0.8,0.2,1.7,0.5,2.4,0.9v3.3c-0.8-0.5-1.6-0.9-2.5-1.2
	c-0.8-0.3-1.6-0.4-2.4-0.5c-0.5,0-1,0.1-1.4,0.3c-0.3,0.2-0.5,0.6-0.5,1c0,0.3,0.2,0.5,0.4,0.7c0.7,0.5,1.5,0.9,2.3,1.3
	c1.4,0.6,2.7,1.5,3.8,2.5c0.7,0.7,1.1,1.7,1.1,2.8c0.1,1.4-0.5,2.7-1.6,3.6c-1.2,0.9-2.7,1.4-4.3,1.3c-1.1,0-2.1-0.1-3.1-0.4
	c-0.8-0.2-1.7-0.5-2.4-0.9v-3.5c1.5,1,3.3,1.6,5.1,1.7c0.6,0,1.2-0.1,1.7-0.4c0.4-0.2,0.6-0.6,0.7-1c0-0.2-0.1-0.5-0.2-0.7
	c-0.2-0.2-0.4-0.5-0.7-0.6c-0.3-0.2-1.3-0.7-3-1.5c-1.1-0.5-2-1.1-2.8-2c-0.6-0.7-0.9-1.6-0.9-2.5c0-1.3,0.6-2.6,1.6-3.3
	C332.2,116.3,333.7,115.9,335.2,115.9z"/>
<path class="st1" d="M348,109c1.3,0,2.3,1.1,2.3,2.3c0,0.6-0.2,1.2-0.7,1.6c-0.9,0.9-2.3,1-3.2,0.1c0,0-0.1-0.1-0.1-0.1
	c-0.4-0.4-0.7-1-0.7-1.6c0-0.6,0.2-1.2,0.7-1.7C346.8,109.2,347.4,109,348,109z M350.1,116.2V132h-4.1v-15.8H350.1z"/>
<path class="st1" d="M363.9,115.9c1.6,0,3.1,0.3,4.5,1c1.3,0.6,2.4,1.6,3.1,2.9c0.7,1.3,1.1,2.7,1.1,4.2c0,1.5-0.3,3-1.1,4.3
	c-0.7,1.2-1.8,2.3-3.1,2.9c-1.4,0.7-2.9,1.1-4.5,1.1c-1.6,0-3.1-0.3-4.5-1.1c-1.3-0.6-2.4-1.7-3.1-2.9c-0.7-1.3-1.1-2.8-1.1-4.3
	c0-1.5,0.4-2.9,1.1-4.2c0.7-1.2,1.8-2.2,3.1-2.9C360.9,116.3,362.4,115.9,363.9,115.9z M359.6,124.1c-0.1,1.4,0.3,2.7,1.2,3.8
	c0.8,0.9,1.9,1.5,3.1,1.4c1.2,0.1,2.4-0.4,3.2-1.3c0.8-1.1,1.3-2.5,1.2-3.9c0.1-1.3-0.3-2.7-1.2-3.7c-0.8-0.9-2-1.4-3.2-1.3
	c-1.2,0-2.3,0.5-3.1,1.4C360,121.4,359.6,122.7,359.6,124.1L359.6,124.1z"/>
<path class="st1" d="M386.8,115.9c1.5-0.1,3,0.5,4,1.7c1,1.2,1.6,2.8,1.5,4.4v10h-4.1v-9.6c0-0.9-0.2-1.7-0.7-2.4
	c-0.5-0.6-1.2-0.9-2-0.9c-0.6,0-1.3,0.2-1.8,0.6c-0.7,0.5-1.3,1.2-1.9,1.9V132h-4.1v-15.8h4.1v2.2c0.6-0.8,1.4-1.5,2.4-1.9
	C385,116.1,385.9,115.9,386.8,115.9z"/>
<path class="st1" d="M403.7,115.9c1.6-0.1,3.3,0.3,4.6,1.3c1.1,0.9,1.7,2.2,1.6,3.6v7.7c0,0.6,0.2,0.9,0.7,0.9
	c0.3,0,0.6-0.1,0.9-0.3c0.3-0.2,0.6-0.4,0.9-0.6v2.4c-1.2,0.8-2.6,1.3-4,1.3c-0.6,0-1.2-0.1-1.7-0.4c-0.4-0.3-0.7-0.8-0.8-1.3
	c-1.4,1.1-3,1.6-4.8,1.7c-1.1,0-2.1-0.4-2.9-1.1c-0.8-0.7-1.2-1.7-1.2-2.7c-0.1-1.2,0.4-2.4,1.2-3.2c1.2-1,2.7-1.7,4.3-2.1l3.4-1
	v-0.7c0-1.5-0.9-2.3-2.8-2.3c-1,0-2,0.2-2.9,0.7c-1,0.5-1.9,1.1-2.6,1.9V118C399.3,116.6,401.5,115.9,403.7,115.9z M401.2,127.8
	c0,0.5,0.2,1,0.5,1.4c0.4,0.3,0.9,0.5,1.4,0.5c1-0.1,2-0.5,2.7-1.2v-4.1c-0.9,0.3-1.8,0.7-2.7,1.1c-0.5,0.3-1,0.6-1.5,1.1
	C401.3,126.8,401.2,127.3,401.2,127.8L401.2,127.8z"/>
<path class="st1" d="M420.7,108.4V132h-4.1v-23.6H420.7z"/>
<path class="st1" d="M230,145.3v23.6h-4.6v-23.6H230z"/>
<path class="st1" d="M245.6,152.8c1.5-0.1,3,0.5,4,1.7c1,1.2,1.6,2.8,1.5,4.4v10h-4.1v-9.6c0-0.9-0.2-1.7-0.7-2.4
	c-0.5-0.6-1.2-0.9-2-0.9c-0.6,0-1.3,0.2-1.8,0.6c-0.7,0.5-1.3,1.2-1.9,1.9v10.5h-4.1v-15.8h4.1v2.2c0.6-0.8,1.4-1.5,2.4-1.9
	C243.8,153,244.7,152.8,245.6,152.8z"/>
<path class="st1" d="M262,152.8c0.8,0,1.6,0.1,2.4,0.3c0.8,0.2,1.7,0.5,2.4,0.9v3.3c-0.8-0.5-1.6-0.9-2.5-1.2
	c-0.8-0.3-1.6-0.4-2.4-0.5c-0.5,0-1,0.1-1.4,0.3c-0.3,0.2-0.5,0.6-0.5,1c0,0.3,0.2,0.5,0.4,0.7c0.7,0.5,1.5,0.9,2.3,1.3
	c1.4,0.6,2.7,1.5,3.8,2.5c0.7,0.7,1.1,1.7,1.1,2.8c0.1,1.4-0.5,2.7-1.6,3.6c-1.2,0.9-2.7,1.4-4.3,1.3c-1.1,0-2.1-0.1-3.1-0.4
	c-0.8-0.2-1.7-0.5-2.4-0.9v-3.5c1.5,1,3.3,1.6,5.1,1.7c0.6,0,1.2-0.1,1.7-0.4c0.4-0.2,0.6-0.6,0.7-1c0-0.2-0.1-0.5-0.2-0.7
	c-0.2-0.2-0.4-0.5-0.7-0.6c-0.3-0.2-1.3-0.7-3-1.5c-1.1-0.5-2-1.1-2.8-2c-0.6-0.7-0.9-1.6-0.9-2.5c0-1.3,0.6-2.6,1.6-3.3
	C259,153.1,260.5,152.7,262,152.8z"/>
<path class="st1" d="M276.9,148.9h0.3v4.2h5.4v3.1h-5.4v7.3c0,0.6,0.2,1.3,0.6,1.7c0.5,0.5,1.1,0.7,1.8,0.7c1.2-0.1,2.3-0.4,3.3-1
	v3.3c-1.3,0.6-2.8,1-4.2,1c-1.5,0.1-3-0.4-4.2-1.5c-1-1-1.6-2.5-1.5-3.9v-7.5h-2.5v-0.7L276.9,148.9z"/>
<path class="st1" d="M289.3,145.8c1.3,0,2.3,1.1,2.3,2.3c0,0.6-0.2,1.2-0.7,1.6c-0.9,0.9-2.3,1-3.2,0.1c0,0-0.1-0.1-0.1-0.1
	c-0.4-0.4-0.7-1-0.7-1.6c0-0.6,0.2-1.2,0.7-1.7C288.1,146,288.7,145.8,289.3,145.8z M291.4,153.1v15.8h-4.1v-15.8H291.4z"/>
<path class="st1" d="M301.7,148.9h0.3v4.2h5.4v3.1H302v7.3c0,0.6,0.2,1.3,0.6,1.7c0.5,0.5,1.1,0.7,1.8,0.7c1.2-0.1,2.3-0.4,3.3-1
	v3.3c-1.3,0.6-2.8,1-4.2,1c-1.5,0.1-3-0.4-4.2-1.5c-1-1-1.6-2.5-1.5-3.9v-7.5h-2.5v-0.7L301.7,148.9z"/>
<path class="st1" d="M315.9,153.1v9.7c-0.1,0.8,0.2,1.7,0.8,2.3c0.5,0.5,1.3,0.8,2,0.8c0.7,0,1.4-0.2,2-0.6c0.7-0.5,1.2-1.1,1.6-1.8
	v-10.4h4.1v15.8h-4.1v-2.1c-1.2,1.5-3,2.4-4.9,2.4c-1.5,0.1-3-0.5-4.1-1.7c-1.1-1.2-1.6-2.7-1.6-4.3v-10.1H315.9z"/>
<path class="st1" d="M336.6,148.9h0.3v4.2h5.4v3.1h-5.4v7.3c0,0.6,0.2,1.3,0.6,1.7c0.5,0.5,1.1,0.7,1.8,0.7c1.2-0.1,2.3-0.4,3.3-1
	v3.3c-1.3,0.6-2.8,1-4.2,1c-1.5,0.1-3-0.4-4.2-1.5c-1-1-1.6-2.5-1.5-3.9v-7.5h-2.5v-0.7L336.6,148.9z"/>
<path class="st1" d="M353.8,152.8c2.1-0.1,4.1,0.7,5.5,2.2c1.4,1.7,2.2,3.9,2,6.2v0.6h-11.1c0.1,1.2,0.7,2.4,1.6,3.2
	c1,0.8,2.3,1.2,3.6,1.1c1,0,1.9-0.2,2.9-0.5c1-0.4,2-0.9,2.8-1.6v3.1c-2,1.3-4.3,2-6.7,2c-2.2,0.1-4.4-0.7-6.1-2.2
	c-1.6-1.6-2.5-3.7-2.4-6c-0.1-2.2,0.7-4.3,2.2-5.9C349.6,153.5,351.6,152.7,353.8,152.8z M357.4,159.3c0-1-0.4-1.9-1-2.7
	c-0.6-0.7-1.5-1-2.4-1c-0.9,0-1.8,0.3-2.5,0.9c-0.7,0.8-1.1,1.7-1.2,2.7L357.4,159.3z"/>
<path class="st1" d="M229.9,71.4v20h11.4V95h-16V71.4H229.9z"/>
<path class="st1" d="M247.9,72c1.3,0,2.3,1.1,2.3,2.3c0,0.6-0.2,1.2-0.7,1.6c-0.9,0.9-2.3,1-3.2,0.1c0,0-0.1-0.1-0.1-0.1
	c-0.4-0.4-0.7-1-0.7-1.6c0-0.6,0.2-1.2,0.7-1.7C246.7,72.2,247.3,72,247.9,72z M250,79.3V95h-4.1V79.3H250z"/>
<path class="st1" d="M265.1,78.9c1.5-0.1,3,0.5,4,1.7c1,1.2,1.6,2.8,1.5,4.4v10h-4.1v-9.6c0-0.9-0.2-1.7-0.7-2.4
	c-0.5-0.6-1.2-0.9-2-0.9c-0.6,0-1.3,0.2-1.8,0.6c-0.7,0.5-1.3,1.2-1.9,1.9V95H256V79.3h4.1v2.2c0.6-0.8,1.4-1.5,2.4-1.9
	C263.3,79.1,264.2,78.9,265.1,78.9z"/>
<path class="st1" d="M280.4,79.3V89c-0.1,0.8,0.2,1.7,0.8,2.3c0.5,0.5,1.3,0.8,2,0.8c0.7,0,1.4-0.2,2-0.6c0.7-0.5,1.2-1.1,1.6-1.8
	V79.3h4.1V95h-4.1v-2.1c-1.2,1.5-3,2.4-4.9,2.4c-1.5,0.1-3-0.5-4.1-1.7c-1.1-1.2-1.6-2.7-1.6-4.3V79.3H280.4z"/>
<path class="st1" d="M299.7,79.3l3.9,4.9l3.8-4.9h5l-6.3,7.7l6.8,8h-5l-4.3-5.2l-4.1,5.2h-4.8l6.5-8l-6.5-7.7H299.7z"/>
<rect x="105.6" y="214.1" class="st1" width="288.8" height="3"/>
</svg>
