<?xml version="1.0" encoding="UTF-8" standalone="no"?>
<!-- Generator: Adobe Illustrator 18.0.0, SVG Export Plug-In . SVG Version: 6.00 Build 0)  -->

<svg
   xmlns:dc="http://purl.org/dc/elements/1.1/"
   xmlns:cc="http://creativecommons.org/ns#"
   xmlns:rdf="http://www.w3.org/1999/02/22-rdf-syntax-ns#"
   xmlns:svg="http://www.w3.org/2000/svg"
   xmlns="http://www.w3.org/2000/svg"
   xmlns:sodipodi="http://sodipodi.sourceforge.net/DTD/sodipodi-0.dtd"
   xmlns:inkscape="http://www.inkscape.org/namespaces/inkscape"
   version="1.1"
   id="_x34_"
   x="0px"
   y="0px"
   viewBox="0 0 512 512"
   style="enable-background:new 0 0 512 512;"
   xml:space="preserve"
   sodipodi:docname="ninja.svg"
   inkscape:version="0.92.4 (5da689c313, 2019-01-14)"><metadata
   id="metadata118"><rdf:RDF><cc:Work
       rdf:about=""><dc:format>image/svg+xml</dc:format><dc:type
         rdf:resource="http://purl.org/dc/dcmitype/StillImage" /></cc:Work></rdf:RDF></metadata><defs
   id="defs116" /><sodipodi:namedview
   pagecolor="#ffffff"
   bordercolor="#666666"
   borderopacity="1"
   objecttolerance="10"
   gridtolerance="10"
   guidetolerance="10"
   inkscape:pageopacity="0"
   inkscape:pageshadow="2"
   inkscape:window-width="2560"
   inkscape:window-height="1377"
   id="namedview114"
   showgrid="false"
   inkscape:zoom="0.4609375"
   inkscape:cx="256"
   inkscape:cy="256"
   inkscape:window-x="-8"
   inkscape:window-y="-8"
   inkscape:window-maximized="1"
   inkscape:current-layer="_x34_" />
<g
   id="g111"
   transform="translate(0,10.612077)">
	<g
   id="g107">
		<g
   id="g69">
			<path
   style="fill:#714e84"
   d="m 495.682,82.053 c -28.532,24.579 -34.497,47.793 -28.46,63.82 1.437,3.953 2.012,6.684 1.941,8.984 -0.288,8.912 -9.99,11.212 -9.99,53.183 0,6.396 -16.53,-2.012 -36.078,-14.302 -28.46,-17.824 -63.389,-43.697 -63.389,-43.697 L 351.154,139.908 236.665,3.644 236.593,3.572 h 216.542 c 9.99,0 18.686,1.366 26.088,3.737 18.327,5.893 28.676,18.183 31.766,31.766 3.451,14.949 -2.011,31.479 -15.307,42.978 z"
   id="path65"
   inkscape:connector-curvature="0" />
			<path
   style="fill:#805f95"
   d="m 487.274,247.137 c 0,63.532 -24.364,121.315 -64.179,164.724 -2.803,3.019 -5.678,5.965 -8.552,8.84 -2.947,2.947 -5.965,5.75 -9.056,8.481 -3.09,2.731 -6.181,5.39 -9.415,7.978 -6.396,5.175 -13.08,10.062 -20.052,14.518 -6.899,4.528 -14.086,8.696 -21.489,12.433 -5.534,2.875 -11.212,5.534 -17.033,7.906 -3.809,1.581 -7.762,3.09 -11.715,4.528 -3.881,1.366 -7.834,2.659 -11.786,3.881 -4.097,1.294 -8.265,2.372 -12.433,3.378 -2.012,0.503 -4.025,1.006 -6.037,1.437 -4.24,0.934 -8.481,1.725 -12.793,2.372 -1.653,0.288 -3.306,0.575 -4.959,0.791 -1.006,0.144 -2.012,0.287 -3.09,0.431 -3.522,0.431 -7.115,0.79 -10.709,1.078 -2.372,0.216 -4.743,0.359 -7.115,0.503 -1.725,0.072 -3.45,0.144 -5.246,0.216 -2.659,0.072 -5.318,0.144 -7.977,0.144 -6.899,0 -13.655,-0.287 -20.411,-0.862 -2.228,-0.144 -4.456,-0.359 -6.684,-0.647 -8.912,-0.934 -17.68,-2.444 -26.232,-4.384 -2.012,-0.431 -4.025,-0.934 -6.037,-1.437 -4.384,-1.078 -8.768,-2.3 -13.08,-3.594 -4.096,-1.366 -8.193,-2.731 -12.218,-4.24 -2.012,-0.719 -4.025,-1.509 -6.037,-2.3 -6.037,-2.372 -11.93,-5.031 -17.68,-7.978 -9.631,-4.671 -18.902,-10.133 -27.67,-16.099 -0.072,-0.072 -0.072,-0.072 -0.144,-0.072 -1.222,-0.79 -2.444,-1.581 -3.593,-2.444 -2.012,-1.437 -4.025,-2.875 -5.965,-4.312 -0.216,-0.216 -0.431,-0.431 -0.719,-0.575 -1.653,-1.294 -3.378,-2.587 -5.031,-3.953 -1.653,-1.294 -3.306,-2.659 -4.959,-4.025 -1.581,-1.365 -3.234,-2.731 -4.815,-4.168 -1.581,-1.366 -3.162,-2.803 -4.672,-4.24 -1.365,-1.222 -2.659,-2.516 -4.025,-3.809 -1.725,-1.653 -3.45,-3.378 -5.103,-5.103 -1.509,-1.581 -2.947,-3.09 -4.384,-4.672 -1.437,-1.581 -2.875,-3.162 -4.24,-4.743 C 54.405,400.794 49.231,394.182 44.415,387.283 16.458,347.61 0,299.314 0,247.137 0,114.897 105.36,7.381 236.665,3.644 c 2.3,-0.072 4.672,-0.072 6.971,-0.072 101.839,0 189.16,62.526 225.526,151.285 11.643,28.46 18.112,59.579 18.112,92.28 z"
   id="path67"
   inkscape:connector-curvature="0" />
		</g>
		<rect
   x="59.956001"
   y="139.88699"
   style="fill:#afafaf"
   width="363.133"
   height="89.885002"
   id="rect71" />
		<path
   style="fill:#87699c"
   d="M 423.089,287.983 H 59.956 v 119.118 c 44.659,51.241 110.355,83.667 183.671,83.667 71.027,0 134.923,-30.404 179.463,-78.895 v -123.89 z"
   id="path73"
   inkscape:connector-curvature="0" />
		<rect
   x="59.956001"
   y="211.791"
   style="fill:#3e3a39"
   width="363.133"
   height="89.885002"
   id="rect75" />
		<g
   id="g81">
			<path
   style="fill:#ffffff"
   d="m 379.377,255.796 c 0,20.115 -16.304,36.405 -36.405,36.405 -20.101,0 -36.404,-16.29 -36.404,-36.405 0,-20.107 16.303,-36.397 36.404,-36.397 20.101,0 36.405,16.29 36.405,36.397 z"
   id="path77"
   inkscape:connector-curvature="0" />
			<path
   style="fill:#595758"
   d="m 360.28,255.796 c 0,9.559 -7.755,17.308 -17.307,17.308 -9.559,0 -17.3,-7.748 -17.3,-17.308 0,-9.552 7.741,-17.3 17.3,-17.3 9.552,0 17.307,7.748 17.307,17.3 z"
   id="path79"
   inkscape:connector-curvature="0" />
		</g>
		<g
   id="g87">
			<path
   style="fill:#ffffff"
   d="m 176.241,255.796 c 0,20.115 -16.304,36.405 -36.401,36.405 -20.105,0 -36.409,-16.29 -36.409,-36.405 0,-20.107 16.304,-36.397 36.409,-36.397 20.097,0 36.401,16.29 36.401,36.397 z"
   id="path83"
   inkscape:connector-curvature="0" />
			<path
   style="fill:#595758"
   d="m 157.137,255.796 c 0,9.559 -7.742,17.308 -17.297,17.308 -9.556,0 -17.308,-7.748 -17.308,-17.308 0,-9.552 7.752,-17.3 17.308,-17.3 9.555,0 17.297,7.748 17.297,17.3 z"
   id="path85"
   inkscape:connector-curvature="0" />
		</g>
		<g
   id="g93">
			<path
   style="fill:#a2a2a4"
   d="m 251.248,167.195 c 6.759,6.759 6.759,17.714 0,24.466 -6.751,6.759 -17.707,6.759 -24.466,0 z"
   id="path89"
   inkscape:connector-curvature="0" />
			<path
   style="fill:#c2c1c1"
   d="m 226.781,191.662 c -6.751,-6.752 -6.751,-17.708 0,-24.466 6.759,-6.759 17.715,-6.759 24.466,0 z"
   id="path91"
   inkscape:connector-curvature="0" />
		</g>
		<g
   id="g99">
			<path
   style="fill:#a2a2a4"
   d="m 343.738,167.195 c 6.751,6.759 6.751,17.714 0,24.466 -6.759,6.759 -17.715,6.759 -24.474,0 z"
   id="path95"
   inkscape:connector-curvature="0" />
			<path
   style="fill:#c2c1c1"
   d="m 319.264,191.662 c -6.752,-6.752 -6.752,-17.708 0,-24.466 6.759,-6.759 17.714,-6.759 24.474,0 z"
   id="path97"
   inkscape:connector-curvature="0" />
		</g>
		<g
   id="g105">
			<path
   style="fill:#a2a2a4"
   d="m 158.766,167.195 c 6.759,6.759 6.759,17.714 0,24.466 -6.752,6.759 -17.715,6.759 -24.47,0 z"
   id="path101"
   inkscape:connector-curvature="0" />
			<path
   style="fill:#c2c1c1"
   d="m 134.296,191.662 c -6.756,-6.752 -6.756,-17.708 0,-24.466 6.755,-6.759 17.718,-6.759 24.47,0 z"
   id="path103"
   inkscape:connector-curvature="0" />
		</g>
	</g>
	<path
   style="opacity:0.18999999;fill:#3e3a39"
   d="m 453.163,3.538 c -66.746,0 -142.02,-7.692 -212.688,-0.393 V 490.382 C 304.624,490.95 368.12,466.421 414.758,420.499 480.367,355.74 504.012,256.758 474.499,169.322 456.552,116.157 462.904,116.445 499.204,74.902 527.79,42.189 487.568,3.538 453.163,3.538 Z"
   id="path109"
   inkscape:connector-curvature="0" />
</g>
</svg>